<?xml version="1.0" ?><svg enable-background="new 0 0 30 30" height="512" id="Layer_1" version="1.1" viewBox="0 0 512 512" width="512" xml:space="preserve" xmlns="http://www.w3.org/2000/svg" xmlns:cc="http://creativecommons.org/ns#" xmlns:dc="http://purl.org/dc/elements/1.1/" xmlns:inkscape="http://www.inkscape.org/namespaces/inkscape" xmlns:rdf="http://www.w3.org/1999/02/22-rdf-syntax-ns#" xmlns:sodipodi="http://sodipodi.sourceforge.net/DTD/sodipodi-0.dtd" xmlns:svg="http://www.w3.org/2000/svg" xmlns:xlink="http://www.w3.org/1999/xlink"><defs id="defs15"><linearGradient id="linearGradient3800"><stop id="stop3802" offset="0" style="stop-color:#000000;stop-opacity:1;"/><stop id="stop3804" offset="1" style="stop-color:#000000;stop-opacity:0;"/></linearGradient><linearGradient id="linearGradient3792"><stop id="stop3794" offset="0" style="stop-color:#5e7cba;stop-opacity:1;"/><stop id="stop3796" offset="1" style="stop-color:#4369b2;stop-opacity:1"/></linearGradient><linearGradient gradientTransform="translate(2245.382,-1821.714)" gradientUnits="userSpaceOnUse" id="linearGradient3006" x1="256.00049" x2="256.00049" xlink:href="#SVGID_1_-8" y1="512" y2="0.00048828131"/><linearGradient gradientUnits="userSpaceOnUse" id="SVGID_1_-8" x1="256.00049" x2="256.00049" y1="512" y2="0.00048828131"><stop id="stop4-8" offset="0" style="stop-color:#0c80b1;stop-opacity:1"/><stop id="stop6-2" offset="1" style="stop-color:#11a7df;stop-opacity:1"/></linearGradient><linearGradient gradientTransform="translate(-687.56745,-442.7963)" gradientUnits="userSpaceOnUse" id="linearGradient3194" x1="256.00049" x2="256.00049" xlink:href="#SVGID_1_-8" y1="512" y2="0.00048828131"/><linearGradient gradientUnits="userSpaceOnUse" id="linearGradient3773" x1="514.45129" x2="513.42902" xlink:href="#SVGID_1_-8" y1="513.22565" y2="-1.2256323"/><linearGradient gradientUnits="userSpaceOnUse" id="linearGradient3798" x1="-873.12775" x2="-598.12775" xlink:href="#linearGradient3792" y1="-405.51376" y2="-405.51376"/><linearGradient gradientUnits="userSpaceOnUse" id="linearGradient3806" x1="0" x2="512" xlink:href="#linearGradient3800" y1="256" y2="256"/><linearGradient gradientUnits="userSpaceOnUse" id="linearGradient3812" x1="0" x2="512" xlink:href="#linearGradient3800" y1="256" y2="256"/><linearGradient gradientUnits="userSpaceOnUse" id="linearGradient3814" x1="0" x2="512" xlink:href="#linearGradient3800" y1="256" y2="256"/><linearGradient gradientUnits="userSpaceOnUse" id="linearGradient3817" x1="515.34363" x2="514.02094" xlink:href="#linearGradient3792" y1="-6.724206" y2="516.70325"/></defs><rect height="425.85132" id="rect3775" ry="10.28756" style="fill:#ffffff;fill-opacity:1;stroke:none" width="304.38367" x="155.7644" y="48.993862"/><path d="M 438.85958,-1.8548903e-6 H 73.14042 C 32.75148,-1.8548903e-6 0,32.760008 0,73.140418 V 438.85958 C 0,479.25705 32.75148,512 73.14042,512 H 438.85958 C 479.24852,512.009 512,479.26559 512,438.86811 V 73.140418 C 512,32.760008 479.24852,-1.8548903e-6 438.85958,-1.8548903e-6 z M 419.04485,157.71569 l -81.26429,0.26454 c 0,0 0,17.8691 0,43.93887 h 81.26429 v 81.25575 h -81.27282 c 0,62.22611 0,124.30714 0,124.32421 v 47.61679 H 256.49921 V 283.18339 H 202.64444 V 201.9191 h 53.85477 v -64.26561 c 0,-33.52802 27.42659,-60.954612 60.95461,-60.954612 h 101.59103 v 81.016812 z" id="path5" style="fill:url(#linearGradient3817);fill-opacity:1"/></svg>